<?xml version="1.0" standalone="no"?>
<!DOCTYPE svg PUBLIC "-//W3C//DTD SVG 20010904//EN"
 "http://www.w3.org/TR/2001/REC-SVG-20010904/DTD/svg10.dtd">
<svg version="1.0" xmlns="http://www.w3.org/2000/svg"
 width="300.000000pt" height="300.000000pt" viewBox="0 0 300.000000 300.000000"
 preserveAspectRatio="xMidYMid meet">
<metadata>
Created by potrace 1.10, written by Peter Selinger 2001-2011
</metadata>
<g transform="translate(0.000000,300.000000) scale(0.100000,-0.100000)"
fill="#000000" stroke="none">
<path d="M2140 2274 c-79 -16 -182 -49 -242 -79 -38 -19 -72 -35 -76 -35 -5 0
-12 15 -17 32 -8 25 -19 36 -48 47 l-37 14 -328 -324 c-180 -178 -353 -346
-385 -373 -65 -55 -51 -58 -152 32 -112 100 -183 126 -241 87 -31 -20 -58 -79
-50 -112 9 -34 73 -76 176 -114 49 -19 89 -37 87 -41 -5 -16 -289 -224 -374
-274 -170 -100 -294 -130 -318 -76 -14 31 -31 27 -39 -10 -9 -45 20 -97 69
-122 50 -26 157 -26 230 -1 125 42 300 146 445 265 41 33 90 73 108 87 l33 26
25 -29 c94 -114 223 -332 250 -423 9 -30 30 -69 51 -92 30 -33 42 -39 67 -37
23 2 32 9 34 26 2 14 -2 22 -11 22 -49 0 -14 209 74 439 30 79 32 82 80 102
51 22 88 63 107 116 13 38 6 48 -22 29 -12 -7 -36 -17 -53 -20 l-32 -7 58 133
c32 73 83 185 113 249 54 113 56 117 116 153 34 21 98 51 142 67 77 28 267 65
278 55 2 -3 -9 -21 -26 -41 -69 -78 -212 -308 -317 -510 -49 -95 -72 -129 -84
-127 -8 2 -32 17 -53 33 -37 30 -37 30 -48 8 -16 -28 2 -70 47 -109 28 -25 32
-33 24 -49 -20 -36 -61 -214 -61 -261 l0 -48 -72 -16 c-40 -9 -93 -20 -118
-24 -44 -8 -45 -9 -42 -43 1 -18 7 -46 13 -62 14 -33 38 -34 214 -11 157 20
288 22 309 5 10 -9 14 -21 10 -33 -5 -17 -2 -19 22 -16 39 4 48 25 35 76 -25
90 -124 152 -222 139 -22 -3 -39 -4 -39 -2 0 7 36 90 76 175 l45 95 122 1
c149 1 240 23 376 90 121 60 231 164 282 268 61 127 51 293 -28 419 -57 94
-142 162 -250 204 -57 21 -88 26 -188 29 -66 1 -131 0 -145 -2z m251 -48 c37
-8 90 -26 119 -41 60 -30 145 -106 167 -148 14 -28 13 -27 -35 11 -27 21 -78
49 -112 62 -57 21 -65 22 -89 9 -19 -11 -27 -25 -31 -55 -4 -29 -34 -81 -107
-189 -117 -175 -260 -406 -280 -453 -13 -30 -12 -34 12 -58 22 -22 31 -25 68
-19 127 20 255 72 362 145 71 49 170 146 209 203 19 29 42 78 51 110 9 31 19
57 22 57 3 0 4 -36 1 -79 -6 -103 -44 -183 -125 -264 -139 -137 -302 -202
-538 -214 -90 -4 -125 -10 -139 -22 -39 -35 -131 -249 -121 -282 9 -27 33 -37
110 -48 47 -7 75 -17 91 -32 36 -34 30 -41 -29 -34 -33 4 -122 -1 -237 -15
-165 -19 -185 -20 -199 -6 -23 24 -5 35 90 56 107 24 123 41 132 136 4 38 18
105 32 149 29 95 30 108 9 140 -16 24 -16 25 8 25 32 0 58 30 98 110 62 125
163 296 256 436 52 77 94 148 94 157 0 29 -29 47 -80 47 -68 0 -232 -45 -315
-86 -118 -57 -141 -82 -208 -224 -89 -189 -147 -328 -147 -355 0 -24 23 -55
41 -55 25 0 3 -30 -40 -53 -27 -15 -56 -39 -66 -53 -27 -42 -112 -311 -126
-401 -8 -46 -17 -79 -21 -75 -4 4 -19 36 -33 71 -20 53 -105 211 -161 301 -9
14 -3 9 13 -10 15 -19 46 -55 69 -79 35 -38 43 -42 61 -32 22 11 50 76 74 169
13 51 12 53 -12 76 -18 18 -47 27 -127 40 -107 17 -133 13 -146 -20 -4 -9 4
-36 19 -61 l25 -45 -48 51 c-34 36 -56 51 -74 51 -18 0 -61 -28 -135 -87 -140
-112 -250 -183 -370 -240 -83 -40 -109 -47 -173 -51 -74 -4 -130 8 -130 28 0
5 16 10 35 10 51 0 157 43 264 107 165 98 391 278 391 312 0 18 -50 52 -120
82 -103 43 -130 64 -130 99 0 49 61 76 113 49 12 -7 58 -42 102 -79 103 -86
118 -94 148 -79 38 20 179 152 473 442 155 152 286 277 292 277 6 0 20 -14 32
-30 39 -55 51 -55 148 -11 166 76 325 98 473 67z m90 -140 c99 -30 175 -88
200 -153 15 -39 10 -125 -10 -168 -63 -139 -295 -313 -476 -359 -77 -19 -155
-30 -155 -22 0 4 9 19 19 34 10 15 61 95 112 177 51 83 134 212 186 288 92
136 103 161 83 198 -6 10 -9 19 -8 19 2 0 24 -7 49 -14z m-1305 -771 c38 -8
86 -15 107 -15 20 0 37 -1 37 -3 0 -2 -11 -35 -23 -73 -13 -38 -27 -86 -31
-107 l-7 -39 -31 49 c-17 26 -59 86 -95 131 -42 55 -57 82 -45 78 11 -4 50
-13 88 -21z"/>
<path d="M1552 1942 c-141 -143 -399 -418 -421 -449 l-25 -34 26 -26 c23 -22
39 -27 127 -35 122 -12 137 -5 174 74 13 29 70 151 127 270 56 120 99 222 95
228 -4 7 -17 -3 -33 -26 -26 -39 -195 -384 -228 -466 l-19 -48 -85 6 c-47 4
-99 9 -117 13 l-31 6 126 130 c138 141 322 343 354 388 37 51 -9 31 -70 -31z"/>
</g>
</svg>
